# xmcd
# Copyright (c) 1998 CDDB Inc.
#
# Track frame offsets:
#	150
#	20569
#	42137
#	59550
#	76209
#	100397
#	121170
#	139614
#	158321
#	174083
#
# Disc length: 2556 seconds
#
# Revision: 0
# Processed by: cddbd v1.4PL0 Copyright (c) Steve Scherf et al.
# Submitted via: audiograbber 1.70
#
DISCID=6f09fa0a
DTITLE=Михаил Шелег - Бабочка - любовь
DYEAR=1900
DGENRE=
TTITLE0=Я тебя хочу
TTITLE1=Бабье лето
TTITLE2=Алёна
TTITLE3=Бабочка - любовь
TTITLE4=Дождь
TTITLE5=Праздник для двоих
TTITLE6=Свет мой
TTITLE7=Лето
TTITLE8=Мой дом
TTITLE9=Судьба
EXTD=
EXTT0=
EXTT1=
EXTT2=
EXTT3=
EXTT4=
EXTT5=
EXTT6=
EXTT7=
EXTT8=
EXTT9=
PLAYORDER=
